<svg width="1926" height="917" xmlns="http://www.w3.org/2000/svg" xmlns:xlink="http://www.w3.org/1999/xlink" xml:space="preserve" overflow="hidden"><defs><filter id="fx0" x="-10%" y="-10%" width="120%" height="120%" filterUnits="userSpaceOnUse" primitiveUnits="userSpaceOnUse"><feComponentTransfer color-interpolation-filters="sRGB"><feFuncR type="discrete" tableValues="0 0"/><feFuncG type="discrete" tableValues="0 0"/><feFuncB type="discrete" tableValues="0 0"/><feFuncA type="linear" slope="0.631373" intercept="0"/></feComponentTransfer><feGaussianBlur stdDeviation="6.875 6.875"/></filter><filter id="fx1" x="-10%" y="-10%" width="120%" height="120%" filterUnits="userSpaceOnUse" primitiveUnits="userSpaceOnUse"><feComponentTransfer color-interpolation-filters="sRGB"><feFuncR type="discrete" tableValues="0 0"/><feFuncG type="discrete" tableValues="0 0"/><feFuncB type="discrete" tableValues="0 0"/><feFuncA type="linear" slope="0.631373" intercept="0"/></feComponentTransfer><feGaussianBlur stdDeviation="6.875 6.875"/></filter><filter id="fx2" x="-10%" y="-10%" width="120%" height="120%" filterUnits="userSpaceOnUse" primitiveUnits="userSpaceOnUse"><feComponentTransfer color-interpolation-filters="sRGB"><feFuncR type="discrete" tableValues="0 0"/><feFuncG type="discrete" tableValues="0 0"/><feFuncB type="discrete" tableValues="0 0"/><feFuncA type="linear" slope="0.631373" intercept="0"/></feComponentTransfer><feGaussianBlur stdDeviation="6.875 6.875"/></filter><filter id="fx3" x="-10%" y="-10%" width="120%" height="120%" filterUnits="userSpaceOnUse" primitiveUnits="userSpaceOnUse"><feComponentTransfer color-interpolation-filters="sRGB"><feFuncR type="discrete" tableValues="0 0"/><feFuncG type="discrete" tableValues="0 0"/><feFuncB type="discrete" tableValues="0 0"/><feFuncA type="linear" slope="0.631373" intercept="0"/></feComponentTransfer><feGaussianBlur stdDeviation="6.875 6.875"/></filter><filter id="fx4" x="-10%" y="-10%" width="120%" height="120%" filterUnits="userSpaceOnUse" primitiveUnits="userSpaceOnUse"><feComponentTransfer color-interpolation-filters="sRGB"><feFuncR type="discrete" tableValues="0 0"/><feFuncG type="discrete" tableValues="0 0"/><feFuncB type="discrete" tableValues="0 0"/><feFuncA type="linear" slope="0.631373" intercept="0"/></feComponentTransfer><feGaussianBlur stdDeviation="6.875 6.875"/></filter><filter id="fx5" x="-10%" y="-10%" width="120%" height="120%" filterUnits="userSpaceOnUse" primitiveUnits="userSpaceOnUse"><feComponentTransfer color-interpolation-filters="sRGB"><feFuncR type="discrete" tableValues="0 0"/><feFuncG type="discrete" tableValues="0 0"/><feFuncB type="discrete" tableValues="0 0"/><feFuncA type="linear" slope="0.631373" intercept="0"/></feComponentTransfer><feGaussianBlur stdDeviation="6.875 6.875"/></filter><filter id="fx6" x="-10%" y="-10%" width="120%" height="120%" filterUnits="userSpaceOnUse" primitiveUnits="userSpaceOnUse"><feComponentTransfer color-interpolation-filters="sRGB"><feFuncR type="discrete" tableValues="0 0"/><feFuncG type="discrete" tableValues="0 0"/><feFuncB type="discrete" tableValues="0 0"/><feFuncA type="linear" slope="0.631373" intercept="0"/></feComponentTransfer><feGaussianBlur stdDeviation="6.875 6.875"/></filter><filter id="fx7" x="-10%" y="-10%" width="120%" height="120%" filterUnits="userSpaceOnUse" primitiveUnits="userSpaceOnUse"><feComponentTransfer color-interpolation-filters="sRGB"><feFuncR type="discrete" tableValues="0 0"/><feFuncG type="discrete" tableValues="0 0"/><feFuncB type="discrete" tableValues="0 0"/><feFuncA type="linear" slope="0.631373" intercept="0"/></feComponentTransfer><feGaussianBlur stdDeviation="6.875 6.875"/></filter><clipPath id="clip8"><rect x="1379" y="959" width="1926" height="917"/></clipPath><linearGradient x1="1875.32" y1="1138.42" x2="1875.32" y2="1372.01" gradientUnits="userSpaceOnUse" spreadMethod="reflect" id="fill9"><stop offset="0" stop-color="#C5744E"/><stop offset="0.5" stop-color="#C25F1D"/><stop offset="1" stop-color="#B25212"/></linearGradient><linearGradient x1="1897.63" y1="1234.71" x2="1897.63" y2="1594.16" gradientUnits="userSpaceOnUse" spreadMethod="reflect" id="fill10"><stop offset="0" stop-color="#E38553"/><stop offset="0.5" stop-color="#E77324"/><stop offset="1" stop-color="#D66315"/></linearGradient><linearGradient x1="1700.13" y1="1299.83" x2="1700.13" y2="1605.66" gradientUnits="userSpaceOnUse" spreadMethod="reflect" id="fill11"><stop offset="0" stop-color="#F3A584"/><stop offset="0.5" stop-color="#F6966B"/><stop offset="1" stop-color="#E28256"/></linearGradient><linearGradient x1="1669.75" y1="1138.42" x2="1669.75" y2="1372.01" gradientUnits="userSpaceOnUse" spreadMethod="reflect" id="fill12"><stop offset="0" stop-color="#F7CBBD"/><stop offset="0.5" stop-color="#F8C0AD"/><stop offset="1" stop-color="#E1A894"/></linearGradient><linearGradient x1="1522.5" y1="1689" x2="1522.5" y2="1722" gradientUnits="userSpaceOnUse" spreadMethod="reflect" id="fill13"><stop offset="0" stop-color="#C5744E"/><stop offset="0.5" stop-color="#C25F1D"/><stop offset="1" stop-color="#B25212"/></linearGradient><linearGradient x1="1817" y1="1689" x2="1817" y2="1722" gradientUnits="userSpaceOnUse" spreadMethod="reflect" id="fill14"><stop offset="0" stop-color="#E38553"/><stop offset="0.5" stop-color="#E77324"/><stop offset="1" stop-color="#D66315"/></linearGradient><linearGradient x1="1522.5" y1="1789" x2="1522.5" y2="1822" gradientUnits="userSpaceOnUse" spreadMethod="reflect" id="fill15"><stop offset="0" stop-color="#F3A584"/><stop offset="0.5" stop-color="#F6966B"/><stop offset="1" stop-color="#E28256"/></linearGradient><linearGradient x1="1817" y1="1789" x2="1817" y2="1822" gradientUnits="userSpaceOnUse" spreadMethod="reflect" id="fill16"><stop offset="0" stop-color="#F7CBBD"/><stop offset="0.5" stop-color="#F8C0AD"/><stop offset="1" stop-color="#E1A894"/></linearGradient><linearGradient x1="2938.04" y1="1143.1" x2="2938.04" y2="1366.26" gradientUnits="userSpaceOnUse" spreadMethod="reflect" id="fill17"><stop offset="0" stop-color="#C5744E"/><stop offset="0.5" stop-color="#C25F1D"/><stop offset="1" stop-color="#B25212"/></linearGradient><linearGradient x1="2981.09" y1="1190.16" x2="2981.09" y2="1517.39" gradientUnits="userSpaceOnUse" spreadMethod="reflect" id="fill18"><stop offset="0" stop-color="#E38553"/><stop offset="0.5" stop-color="#E77324"/><stop offset="1" stop-color="#D66315"/></linearGradient><linearGradient x1="2840.4" y1="1366.26" x2="2840.4" y2="1589.41" gradientUnits="userSpaceOnUse" spreadMethod="reflect" id="fill19"><stop offset="0" stop-color="#F3A584"/><stop offset="0.5" stop-color="#F6966B"/><stop offset="1" stop-color="#E28256"/></linearGradient><linearGradient x1="2757.93" y1="1143.1" x2="2757.93" y2="1384.68" gradientUnits="userSpaceOnUse" spreadMethod="reflect" id="fill20"><stop offset="0" stop-color="#F7CBBD"/><stop offset="0.5" stop-color="#F8C0AD"/><stop offset="1" stop-color="#E1A894"/></linearGradient><linearGradient x1="2611.5" y1="1673" x2="2611.5" y2="1706" gradientUnits="userSpaceOnUse" spreadMethod="reflect" id="fill21"><stop offset="0" stop-color="#C5744E"/><stop offset="0.5" stop-color="#C25F1D"/><stop offset="1" stop-color="#B25212"/></linearGradient><linearGradient x1="2905.5" y1="1673" x2="2905.5" y2="1706" gradientUnits="userSpaceOnUse" spreadMethod="reflect" id="fill22"><stop offset="0" stop-color="#E38553"/><stop offset="0.5" stop-color="#E77324"/><stop offset="1" stop-color="#D66315"/></linearGradient><linearGradient x1="2611.5" y1="1773" x2="2611.5" y2="1805" gradientUnits="userSpaceOnUse" spreadMethod="reflect" id="fill23"><stop offset="0" stop-color="#F3A584"/><stop offset="0.5" stop-color="#F6966B"/><stop offset="1" stop-color="#E28256"/></linearGradient><linearGradient x1="2905.5" y1="1773" x2="2905.5" y2="1805" gradientUnits="userSpaceOnUse" spreadMethod="reflect" id="fill24"><stop offset="0" stop-color="#F7CBBD"/><stop offset="0.5" stop-color="#F8C0AD"/><stop offset="1" stop-color="#E1A894"/></linearGradient></defs><g clip-path="url(#clip8)" transform="translate(-1379 -959)"><path d="M2274.5 1395.75 2367 1395.75 2367 1374.5 2409.5 1417 2367 1459.5 2367 1438.25 2274.5 1438.25Z" stroke="#000000" stroke-width="9.16667" stroke-miterlimit="8" fill-rule="evenodd"/><g><g filter="url(#fx0)" transform="translate(1759 1123)"><g><path d="M21.8311 22.2953C96.6039 22.2953 166.858 58.0914 210.808 118.584L21.8311 255.884Z" fill="#FF0000" fill-rule="evenodd"/></g></g></g><g><g filter="url(#fx1)" transform="translate(1759 1220)"><g><path d="M210.808 21.5841C286.637 125.953 263.5 272.032 159.131 347.861 139.301 362.268 117.326 373.465 94.0141 381.04L21.8311 158.884Z" fill="#FF0000" fill-rule="evenodd"/></g></g></g><g><g filter="url(#fx2)" transform="translate(1525 1285)"><g><path d="M328.014 316.039C205.321 355.905 73.5411 288.76 33.6756 166.066 18.4321 119.152 18.4321 68.6155 33.6756 21.7008L255.831 93.8836Z" fill="#FF0000" fill-rule="evenodd"/></g></g></g><g><g filter="url(#fx3)" transform="translate(1537 1123)"><g><path d="M21.6754 183.701C52.9469 87.4569 142.635 22.2951 243.831 22.2951L243.831 255.884Z" fill="#FF0000" fill-rule="evenodd"/></g></g></g><g><path d="M1780.83 1138.42C1855.6 1138.42 1925.86 1174.22 1969.81 1234.71L1780.83 1372.01Z" fill="url(#fill9)" fill-rule="evenodd"/></g><g><path d="M1969.81 1234.71C2045.64 1339.08 2022.5 1485.16 1918.13 1560.99 1898.3 1575.39 1876.33 1586.59 1853.01 1594.16L1780.83 1372.01Z" fill="url(#fill10)" fill-rule="evenodd"/></g><g><path d="M1853.01 1594.16C1730.32 1634.03 1598.54 1566.88 1558.68 1444.19 1543.43 1397.28 1543.43 1346.74 1558.68 1299.83L1780.83 1372.01Z" fill="url(#fill11)" fill-rule="evenodd"/></g><g><path d="M1558.68 1299.83C1589.95 1203.58 1679.63 1138.42 1780.83 1138.42L1780.83 1372.01Z" fill="url(#fill12)" fill-rule="evenodd"/></g><g><text font-family="Calibri,Calibri_MSFontService,sans-serif" font-weight="400" font-size="60" transform="matrix(1 0 0 1 1809.41 1235)">15%</text></g><g><text font-family="Calibri,Calibri_MSFontService,sans-serif" font-weight="400" font-size="60" transform="matrix(1 0 0 1 1878 1441)">30%</text></g><g><text font-family="Calibri,Calibri_MSFontService,sans-serif" font-weight="400" font-size="60" transform="matrix(1 0 0 1 1613.52 1508)">35%</text></g><g><text font-family="Calibri,Calibri_MSFontService,sans-serif" font-weight="400" font-size="60" transform="matrix(1 0 0 1 1628.53 1254)">20%</text></g><g><text font-family="Calibri,Calibri_MSFontService,sans-serif" font-weight="700" font-size="72" transform="matrix(1 0 0 1 1563.74 1062)">Input Portfolio</text></g><g><rect x="1506" y="1689" width="33" height="33" fill="url(#fill13)"/></g><g><text font-family="Calibri,Calibri_MSFontService,sans-serif" font-weight="400" font-size="60" transform="matrix(1 0 0 1 1553.5 1723)">Energy</text></g><g><rect x="1801" y="1689" width="32" height="33" fill="url(#fill14)"/></g><g><text font-family="Calibri,Calibri_MSFontService,sans-serif" font-weight="400" font-size="60" transform="matrix(1 0 0 1 1848.01 1723)">Finance</text></g><g><rect x="1506" y="1789" width="33" height="33" fill="url(#fill15)"/></g><g><text font-family="Calibri,Calibri_MSFontService,sans-serif" font-weight="400" font-size="60" transform="matrix(1 0 0 1 1553.5 1823)">Industrial</text></g><g><rect x="1801" y="1789" width="32" height="33" fill="url(#fill16)"/></g><g><text font-family="Calibri,Calibri_MSFontService,sans-serif" font-weight="400" font-size="60" transform="matrix(1 0 0 1 1848.01 1823)">Materials</text></g><g><g filter="url(#fx4)" transform="translate(2848 1128)"><g><path d="M21.5081 21.9771C71.1583 21.9771 119.391 38.5352 158.572 69.031L21.5081 245.13Z" fill="#FF0000" fill-rule="evenodd"/></g></g></g><g><g filter="url(#fx5)" transform="translate(2848 1175)"><g><path d="M158.572 22.031C255.828 97.7291 273.305 237.937 197.607 335.194 193.83 340.047 189.853 344.743 185.687 349.268L21.5081 198.13Z" fill="#FF0000" fill-rule="evenodd"/></g></g></g><g><g filter="url(#fx6)" transform="translate(2625 1351)"><g><path d="M408.687 173.268C325.216 263.941 184.044 269.78 93.3706 186.309 52.1746 148.386 26.7411 96.3606 22.1171 40.558L244.508 22.1302Z" fill="#FF0000" fill-rule="evenodd"/></g></g></g><g><g filter="url(#fx7)" transform="translate(2624 1128)"><g><path d="M23.1174 263.558C12.9399 140.735 104.257 32.9165 227.08 22.7391 233.21 22.2312 239.358 21.9769 245.508 21.9769L245.508 245.13Z" fill="#FF0000" fill-rule="evenodd"/></g></g></g><g><path d="M2869.51 1143.1C2919.16 1143.1 2967.39 1159.66 3006.57 1190.16L2869.51 1366.26Z" fill="url(#fill17)" fill-rule="evenodd"/></g><g><path d="M3006.57 1190.16C3103.83 1265.85 3121.31 1406.06 3045.61 1503.32 3041.83 1508.17 3037.85 1512.87 3033.69 1517.39L2869.51 1366.26Z" fill="url(#fill18)" fill-rule="evenodd"/></g><g><path d="M3033.69 1517.39C2950.22 1608.07 2809.04 1613.91 2718.37 1530.43 2677.17 1492.51 2651.74 1440.49 2647.12 1384.68L2869.51 1366.26Z" fill="url(#fill19)" fill-rule="evenodd"/></g><g><path d="M2647.12 1384.68C2636.94 1261.86 2728.26 1154.04 2851.08 1143.86 2857.21 1143.36 2863.36 1143.1 2869.51 1143.1L2869.51 1366.26Z" fill="url(#fill20)" fill-rule="evenodd"/></g><g><text font-family="Calibri,Calibri_MSFontService,sans-serif" font-weight="400" font-size="60" transform="matrix(1 0 0 1 2872.93 1227)">10%</text></g><g><text font-family="Calibri,Calibri_MSFontService,sans-serif" font-weight="400" font-size="60" transform="matrix(1 0 0 1 2966.9 1375)">25%</text></g><g><text font-family="Calibri,Calibri_MSFontService,sans-serif" font-weight="400" font-size="60" transform="matrix(1 0 0 1 2763.08 1547)">35%</text></g><g><text font-family="Calibri,Calibri_MSFontService,sans-serif" font-weight="400" font-size="60" transform="matrix(1 0 0 1 2706.88 1285)">25</text></g><g><text font-family="Calibri,Calibri_MSFontService,sans-serif" font-weight="400" font-size="60" transform="matrix(1 0 0 1 2767.29 1285)">%</text></g><g><text font-family="Calibri,Calibri_MSFontService,sans-serif" font-weight="700" font-size="72" transform="matrix(1 0 0 1 2575.56 1067)">Generated Portfolio</text></g><g><rect x="2595" y="1673" width="33" height="33" fill="url(#fill21)"/></g><g><text font-family="Calibri,Calibri_MSFontService,sans-serif" font-weight="400" font-size="60" transform="matrix(1 0 0 1 2642.17 1707)">Energy</text></g><g><rect x="2889" y="1673" width="33" height="33" fill="url(#fill22)"/></g><g><text font-family="Calibri,Calibri_MSFontService,sans-serif" font-weight="400" font-size="60" transform="matrix(1 0 0 1 2936.69 1707)">Finance</text></g><g><rect x="2595" y="1773" width="33" height="32" fill="url(#fill23)"/></g><g><text font-family="Calibri,Calibri_MSFontService,sans-serif" font-weight="400" font-size="60" transform="matrix(1 0 0 1 2642.17 1806)">Industrial</text></g><g><rect x="2889" y="1773" width="33" height="32" fill="url(#fill24)"/></g><g><text font-family="Calibri,Calibri_MSFontService,sans-serif" font-weight="400" font-size="60" transform="matrix(1 0 0 1 2936.69 1806)">Materials</text></g></g></svg>